<svg xmlns="http://www.w3.org/2000/svg" data-name="Camada 2" id="Camada_2" viewBox="0 0 46.57 51.26"><defs><style>      .cls-1 {        fill: #fff;      }      .cls-1, .cls-2 {        stroke-width: 0px;      }      .cls-2 {        fill: url(#Gradiente_sem_nome_7);      }    </style><linearGradient data-name="Gradiente sem nome 7" gradientUnits="userSpaceOnUse" id="Gradiente_sem_nome_7" x1="0" x2="28.99" y1="12.61" y2="12.61"><stop offset="0" stop-color="#4abeff"></stop><stop offset="1" stop-color="#0086ff"></stop></linearGradient></defs><g data-name="Camada 1" id="Camada_1-2"><g><path class="cls-2" d="m28.99,15.34l-1.86-2.35-.87-12.99-4.01,4.16c.19.18.35.39.49.62.63,1.09.5,2.52-.49,3.49-.58.57-1.41.85-2.21.77-1.9-.2-3.01-2.06-2.43-3.75l-7.29-2.5-1.44,7.57c1.24.23,2.23,1.28,2.32,2.66.05.81-.28,1.62-.87,2.17-1.39,1.31-3.53.93-4.43-.62-.13-.23-.23-.47-.3-.73l-5.6,1.42,10.86,7.18,1.12,2.78h0c3.68-5.89,10.02-9.59,16.96-9.89h.05Z"></path><path class="cls-1" d="m35.79,29.46c-1.51-1.53-3.29-2.28-5.36-2.25-2.2.02-4.35,1.01-5.84,2.63-2.04,2.22-2.58,5.06-1.62,8.52,2.17,3.82,5.26,5.4,9.28,4.74,1.45-.24,2.77-1.02,3.8-2.06l.18-.18c.79-.8,1.97-1.03,2.93-.45l5.11,3.06c-.67,1.13-1.47,2.16-2.41,3.1-1.5,1.5-3.24,2.66-5.2,3.48-1.96.81-4.01,1.22-6.14,1.22s-4.18-.41-6.14-1.22c-1.96-.81-3.7-1.97-5.2-3.48-1.5-1.5-2.66-3.24-3.48-5.2-.81-1.96-1.22-4.01-1.22-6.14s.41-4.18,1.22-6.14c.81-1.96,1.97-3.7,3.48-5.2s3.24-2.66,5.2-3.48c1.96-.81,4.01-1.22,6.14-1.22s4.18.41,6.14,1.22c1.96.81,3.7,1.97,5.2,3.48,1.5,1.5,2.66,3.24,3.48,5.2.73,1.78,1.14,3.61,1.22,5.51l-17.98,5.48h0c-1.19-4.31,1.27-8.78,5.54-10.1l1.67-.51Z"></path></g></g></svg>