<svg xmlns="http://www.w3.org/2000/svg" data-name="Camada 2" id="Camada_2" viewBox="0 0 370.58 79.87"><defs><style>      .cls-1 {        fill: url(#Gradiente_sem_nome_7-4);      }      .cls-1, .cls-2, .cls-3, .cls-4, .cls-5, .cls-6 {        stroke-width: 0px;      }      .cls-2 {        fill: url(#Gradiente_sem_nome_7-3);      }      .cls-3 {        fill: #fff;      }      .cls-4 {        fill: url(#Gradiente_sem_nome_7-2);      }      .cls-5 {        fill: url(#Gradiente_sem_nome_7-5);      }      .cls-6 {        fill: url(#Gradiente_sem_nome_7);      }    </style><linearGradient data-name="Gradiente sem nome 7" gradientUnits="userSpaceOnUse" id="Gradiente_sem_nome_7" x1="288.82" x2="324.16" y1="37.21" y2="72.55"><stop offset="0" stop-color="#4abeff"></stop><stop offset="1" stop-color="#0086ff"></stop></linearGradient><linearGradient data-name="Gradiente sem nome 7" href="#Gradiente_sem_nome_7" id="Gradiente_sem_nome_7-2" x1="217.83" x2="267.78" y1="25.93" y2="75.88"></linearGradient><linearGradient data-name="Gradiente sem nome 7" href="#Gradiente_sem_nome_7" id="Gradiente_sem_nome_7-3" x1="332.1" x2="374" y1="30.29" y2="72.19"></linearGradient><linearGradient data-name="Gradiente sem nome 7" href="#Gradiente_sem_nome_7" id="Gradiente_sem_nome_7-4" x1="0" x2="45.17" y1="19.65" y2="19.65"></linearGradient><linearGradient data-name="Gradiente sem nome 7" href="#Gradiente_sem_nome_7" id="Gradiente_sem_nome_7-5" x1="101.26" x2="121.98" y1="18.81" y2="18.81"></linearGradient></defs><g data-name="Camada 1" id="Camada_1-2"><g><path class="cls-3" d="m55.77,45.9c-2.35-2.38-5.13-3.55-8.34-3.51-3.43.04-6.78,1.57-9.1,4.09-3.18,3.46-4.02,7.89-2.53,13.28,3.38,5.96,8.2,8.42,14.46,7.38,2.26-.37,4.31-1.58,5.92-3.21l.28-.28c1.23-1.24,3.08-1.6,4.57-.7l7.96,4.76c-1.04,1.76-2.29,3.37-3.76,4.83-2.34,2.34-5.04,4.15-8.1,5.42-3.06,1.27-6.25,1.9-9.57,1.9s-6.51-.63-9.57-1.9c-3.06-1.27-5.76-3.07-8.1-5.42-2.34-2.34-4.15-5.04-5.42-8.1-1.27-3.06-1.9-6.25-1.9-9.57s.63-6.51,1.9-9.57c1.27-3.06,3.07-5.76,5.42-8.1s5.04-4.15,8.1-5.42c3.06-1.27,6.25-1.9,9.57-1.9s6.51.63,9.57,1.9c3.06,1.27,5.76,3.07,8.1,5.42,2.34,2.34,4.15,5.04,5.42,8.1,1.14,2.77,1.77,5.63,1.9,8.59l-28.01,8.54h0c-1.85-6.72,1.97-13.69,8.63-15.74l2.6-.8Z"></path><path class="cls-6" d="m314.69,45.9c-2.35-2.38-5.13-3.55-8.35-3.51-3.43.04-6.78,1.57-9.1,4.09-2.16,2.35-3.24,5.15-3.25,8.39s1.43,6.72,3.88,9.06c2.7,2.59,6.01,3.72,9.92,3.39,2.85-.24,5.51-1.58,7.53-3.61l.05-.06c1.22-1.24,3.08-1.6,4.57-.7l7.96,4.76c-1.04,1.76-2.29,3.37-3.76,4.83-2.34,2.34-5.04,4.15-8.1,5.42-3.06,1.27-6.25,1.9-9.57,1.9s-6.51-.63-9.57-1.9c-3.06-1.27-5.76-3.07-8.1-5.42-2.34-2.34-4.15-5.04-5.42-8.1-1.27-3.06-1.9-6.25-1.9-9.57s.63-6.51,1.9-9.57c1.27-3.06,3.07-5.76,5.42-8.1,2.34-2.34,5.04-4.15,8.1-5.42,3.06-1.27,6.25-1.9,9.57-1.9s6.51.63,9.57,1.9c3.06,1.27,5.76,3.07,8.1,5.42,2.34,2.34,4.15,5.04,5.42,8.1,1.14,2.77,1.77,5.63,1.9,8.59l-28.01,8.54h0c-1.85-6.72,1.97-13.69,8.63-15.74l2.6-.8Z"></path><path class="cls-3" d="m75.87,16.73h18.41v60.43h-18.41V16.73Z"></path><path class="cls-3" d="m102.42,32.61h18.41v44.55h-18.41v-44.55Z"></path><path class="cls-3" d="m126.2,73.57l5.05-12.13c4.24,2.52,10.26,3.99,15.56,3.99,4.48,0,5.7-.81,5.7-2.12,0-4.56-25.65,1.55-25.65-16.29,0-8.39,7.82-15.23,22.8-15.23,6.52,0,13.44,1.22,18.16,3.67l-5.05,12.13c-4.56-2.52-9.12-3.26-12.87-3.26-4.72,0-6.03,1.06-6.03,2.12,0,4.64,25.57-1.38,25.57,16.45,0,8.06-7.57,15.07-23.05,15.07-7.66,0-15.64-1.79-20.2-4.4Z"></path><path class="cls-3" d="m219.05,53.21v23.94h-11.24c-3.24,0-5.86-2.63-5.86-5.86h0c-2.12,4.48-6.35,6.68-12.62,6.68-10.91,0-16.53-6.19-16.53-13.84,0-8.63,6.52-13.44,20.36-13.44h7.41c-.57-3.42-3.18-5.21-8.39-5.21-3.99,0-8.47,1.3-11.4,3.5l-5.86-12.13c5.21-3.26,13.11-5.05,20.03-5.05,15.31,0,24.11,6.6,24.11,21.42Zm-18.41,9.45v-3.09h-4.56c-3.91,0-5.62,1.3-5.62,3.75,0,2.04,1.63,3.58,4.4,3.58,2.52,0,4.81-1.3,5.78-4.24Z"></path><path class="cls-4" d="m278.26,54.84c0,14.33-9.85,23.13-21.5,23.13-5.54,0-9.53-1.47-12.22-4.48v3.67h-17.51V16.73h18.41v18.89c2.69-2.61,6.43-3.83,11.32-3.83,11.65,0,21.5,8.71,21.5,23.05Zm-18.65,0c0-5.78-3.18-8.71-7.25-8.71s-7.25,2.93-7.25,8.71,3.18,8.8,7.25,8.8,7.25-3.01,7.25-8.8Z"></path><path class="cls-2" d="m370.58,75.61c-2.85,1.63-7,2.36-11.32,2.36-12.3,0-19.46-5.78-19.46-18.08v-11.4h-6.11v-13.44h6.11v-12.46h5.95c6.88,0,12.46,5.58,12.46,12.46h0s9.12,0,9.12,0v13.44h-9.12v11.24c0,2.77,1.63,4.32,3.83,4.32,1.47,0,2.93-.41,4.15-1.22l4.4,12.79Z"></path><path class="cls-1" d="m45.17,23.9l-2.9-3.66-1.35-20.24-6.24,6.48c.3.29.55.61.76.97.99,1.7.77,3.93-.77,5.44-.9.88-2.19,1.33-3.44,1.2-2.96-.3-4.7-3.21-3.79-5.85l-11.36-3.89-2.24,11.8c1.93.36,3.47,1.99,3.61,4.14.08,1.26-.43,2.52-1.35,3.39-2.17,2.04-5.51,1.45-6.91-.97-.21-.36-.36-.74-.47-1.14L0,23.79l16.92,11.19,1.75,4.33h0c5.73-9.18,15.62-14.94,26.43-15.4h.08Z"></path><path class="cls-5" d="m117.06,10.55h-10.87c-.83,0-1.63.33-2.21.92l-1.79,1.79c-1.15,1.15-1.23,3-.17,4.24l7.23,8.48c1.25,1.46,3.51,1.46,4.76,0l7.23-8.48c1.06-1.24.99-3.09-.17-4.24l-1.79-1.79c-.59-.59-1.38-.92-2.21-.92Z"></path></g></g></svg>