<svg width="21" height="21" viewBox="0 0 21 21" fill="none" xmlns="http://www.w3.org/2000/svg">
<path d="M4.92188 6.15234C5.86154 6.15234 6.68924 5.89583 7.37272 5.56853C6.67882 6.87414 6.26305 8.38548 6.18056 9.94407C3.40606 10.2418 1.23047 12.5695 1.23047 15.4219C1.23047 18.4751 3.71433 21 6.76758 21C7.70823 21 8.60926 20.735 9.41739 20.2917C8.16375 19.0627 7.38281 17.3121 7.38281 15.4219C7.38281 13.5316 8.16375 11.8221 9.41739 10.5931C8.79514 10.2516 8.11707 10.0195 7.4091 9.92931C7.67665 5.58071 10.9608 1.99373 15.1952 1.33924C14.1168 2.85329 13.5352 4.65991 13.5352 6.55676V9.94699C10.7741 10.2576 8.61328 12.5791 8.61328 15.4219C8.61328 18.4751 11.0971 21 14.1504 21C17.2036 21 19.6875 18.4751 19.6875 15.4219C19.6875 12.5791 17.5266 10.2576 14.7656 9.94695V6.55672C14.7656 4.47665 15.5755 2.52103 17.0463 1.05021L18.0965 0H16.6113C13.7217 0 11.1027 1.17838 9.20784 3.07921C8.71037 2.60162 7.11523 1.23047 4.92188 1.23047C2.32637 1.23047 0.550348 3.16444 0.464461 3.2468L0 3.69141L0.464461 4.13602C0.550348 4.21837 2.32641 6.15234 4.92188 6.15234ZM14.1504 13.5762C13.1327 13.5762 12.3047 14.4042 12.3047 15.4219H11.0742C11.0742 13.7258 12.4543 12.3457 14.1504 12.3457V13.5762ZM6.76758 13.5762C5.74986 13.5762 4.92188 14.4042 4.92188 15.4219H3.69141C3.69141 13.7258 5.0715 12.3457 6.76758 12.3457V13.5762Z" fill="white"/>
</svg>
