<svg width="21" height="21" viewBox="0 0 21 21" fill="none" xmlns="http://www.w3.org/2000/svg">
<g clip-path="url(#clip0_1597_57)">
<path d="M11.0263 10.4999C11.0263 10.7906 10.7906 11.0263 10.4999 11.0263C10.2092 11.0263 9.97363 10.7906 9.97363 10.4999C9.97363 10.2092 10.2092 9.97363 10.4999 9.97363C10.7906 9.97363 11.0263 10.2092 11.0263 10.4999Z" fill="white"/>
<path d="M17.8688 10.5001C17.8688 6.43038 14.5697 3.13135 10.5001 3.13135C6.43038 3.13135 3.13135 6.43038 3.13135 10.5001C3.13135 14.5697 6.43038 17.8688 10.5001 17.8688C14.5678 17.8641 17.8641 14.5678 17.8688 10.5001ZM13.6581 11.5527C13.2886 11.5482 12.9493 11.3478 12.7671 11.0264H11.9821C11.8231 11.4723 11.4723 11.8231 11.0264 11.9821V12.7671C11.3479 12.9493 11.5484 13.2886 11.5528 13.6581C11.5528 14.2395 11.0815 14.7107 10.5001 14.7107C9.91863 14.7107 9.44743 14.2395 9.44743 13.6581C9.45192 13.2886 9.65235 12.9493 9.97375 12.7671V11.9821C9.52786 11.823 9.17699 11.4723 9.01805 11.0264H8.23299C8.05082 11.3478 7.71148 11.5482 7.34202 11.5527C6.76059 11.5527 6.28939 11.0815 6.28939 10.5001C6.28939 9.91863 6.76059 9.44727 7.34202 9.44727C7.71148 9.45176 8.05082 9.65219 8.23299 9.97375H9.01805C9.17699 9.52786 9.52786 9.17699 9.97375 9.01805V8.23299C9.65235 8.05082 9.45192 7.71148 9.44743 7.34202C9.44743 6.76059 9.91863 6.28939 10.5001 6.28939C11.0815 6.28939 11.5528 6.76059 11.5528 7.34202C11.5484 7.71148 11.3479 8.05066 11.0264 8.23299V9.01805C11.4723 9.17699 11.8231 9.52786 11.9821 9.97375H12.7671C12.9493 9.65219 13.2886 9.45176 13.6581 9.44727C14.2395 9.44727 14.7107 9.91863 14.7107 10.5001C14.7107 11.0815 14.2395 11.5527 13.6581 11.5527Z" fill="white"/>
<path d="M2.10542 11.0264H0C0.0712967 12.5145 0.460144 13.9702 1.14059 15.2955L2.96658 14.2414C2.46655 13.2385 2.17367 12.145 2.10542 11.0264Z" fill="white"/>
<path d="M2.10542 9.97374C2.17367 8.85494 2.46671 7.76162 2.96674 6.7585L1.14075 5.70459C0.460304 7.02991 0.0712967 8.48564 0 9.97374H2.10542Z" fill="white"/>
<path d="M18.8945 11.0264C18.8263 12.145 18.5332 13.2385 18.0332 14.2414L19.8592 15.2955C20.5396 13.9702 20.9286 12.5145 20.9999 11.0264H18.8945Z" fill="white"/>
<path d="M14.2419 18.0332C13.2388 18.5334 12.1452 18.8264 11.0264 18.8947V21.0001C12.5148 20.9288 13.9707 20.5398 15.2962 19.8592L14.2419 18.0332Z" fill="white"/>
<path d="M9.97356 21.0001V18.8947C8.85461 18.8263 7.76096 18.5332 6.75784 18.0332L5.70361 19.859C7.02925 20.5396 8.48515 20.9286 9.97356 21.0001Z" fill="white"/>
<path d="M11.0264 0V2.10542C12.1452 2.17383 13.2388 2.46687 14.2419 2.9669L15.2962 1.14107C13.9707 0.460464 12.5148 0.0712967 11.0264 0Z" fill="white"/>
<path d="M5.84475 17.5112C4.91148 16.8894 4.11072 16.0888 3.48891 15.1555L1.66772 16.2069C2.47842 17.4569 3.54339 18.5218 4.7934 19.3324L5.84475 17.5112Z" fill="white"/>
<path d="M17.5111 15.1555C16.8893 16.0888 16.0885 16.8894 15.1553 17.5112L16.2068 19.3324C17.4568 18.5218 18.5218 17.4567 19.3323 16.2069L17.5111 15.1555Z" fill="white"/>
<path d="M6.75784 2.9669C7.76096 2.46671 8.85461 2.17367 9.97356 2.10542V0C8.48515 0.0712967 7.02925 0.460304 5.70361 1.14091L6.75784 2.9669Z" fill="white"/>
<path d="M3.48891 5.84418C4.11072 4.91108 4.91148 4.11047 5.84459 3.48851L4.79324 1.66748C3.54323 2.47802 2.47826 3.54314 1.66772 4.793L3.48891 5.84418Z" fill="white"/>
<path d="M18.0332 6.75842C18.5332 7.76154 18.8261 8.85486 18.8945 9.97366H20.9999C20.9285 8.4854 20.5396 7.02982 19.8592 5.70435L18.0332 6.75842Z" fill="white"/>
<path d="M15.1553 3.48867C16.0885 4.11047 16.8893 4.91108 17.5111 5.84435L19.3323 4.793C18.5218 3.54314 17.4566 2.47802 16.2068 1.66748L15.1553 3.48867Z" fill="white"/>
</g>
<defs>
<clipPath id="clip0_1597_57">
<rect width="21" height="21" fill="white"/>
</clipPath>
</defs>
</svg>
