<svg width="21" height="21" viewBox="0 0 21 21" fill="none" xmlns="http://www.w3.org/2000/svg">
<g clip-path="url(#clip0_1597_72)">
<path d="M19.9421 1.088C20.1312 0.972707 20.2152 0.75262 20.1732 0.532529C20.1312 0.322919 19.9526 0.165712 19.7426 0.12379C17.0858 -0.295429 15.08 0.417243 13.7463 1.25569C15.185 1.68538 16.4977 2.40854 17.5793 3.37274C18.7765 1.85307 19.9316 1.09848 19.9421 1.088Z" fill="white"/>
<path d="M3.42355 3.37274C4.5052 2.40854 5.81788 1.68538 7.25655 1.25569C5.92289 0.417243 3.91712 -0.295429 1.26025 0.12379C1.05022 0.165712 0.8717 0.322919 0.829693 0.532529C0.787686 0.75262 0.8717 0.972707 1.06072 1.088C1.07123 1.09848 2.22639 1.85307 3.42355 3.37274Z" fill="white"/>
<path d="M19.9528 12.7737C19.3752 12.7737 18.9026 13.2453 18.9026 13.8217C18.9026 14.3981 18.451 14.8278 17.8945 14.8278H17.2434C17.737 13.7064 18.094 12.5745 18.283 11.5894C19.2072 11.254 20.0473 10.6251 20.7509 9.74481C21.0344 9.39897 21.0554 8.90641 20.8139 8.52906C19.9003 7.11421 18.6085 6.22337 17.1804 6.02424C15.7102 4.05391 13.2108 2.85913 10.5014 2.85913C7.79209 2.85913 5.29273 4.06439 3.82253 6.02424C2.39433 6.22337 1.10265 7.11421 0.189026 8.52906C-0.0525072 8.90641 -0.0315043 9.39897 0.252035 9.74481C0.95563 10.6251 1.79575 11.254 2.71988 11.5894C2.91941 12.5745 3.27645 13.7064 3.75952 14.8278H3.10843C2.55185 14.8278 2.10029 14.3772 2.10029 13.8217C2.10029 13.2662 1.62772 12.7737 1.05014 12.7737C0.472565 12.7737 0 13.2453 0 13.8217C0 15.53 1.3967 16.9239 3.10843 16.9239H4.84117C6.22736 19.1773 8.17016 21.0009 10.4909 21.0009C12.8117 21.0009 14.7545 19.1773 16.1407 16.9239H17.8735C19.5852 16.9239 20.9819 15.53 20.9819 13.8217C20.9819 13.2453 20.5093 12.7737 19.9318 12.7737H19.9528ZM8.90523 11.5475C8.69523 11.757 8.43266 11.8514 8.15966 11.8514C7.88659 11.8514 7.62409 11.7466 7.41401 11.5475L6.60541 10.7404C6.19585 10.3317 6.19585 9.67146 6.60541 9.26268C7.01497 8.85398 7.67659 8.85398 8.08609 9.26268L8.89473 10.0697C9.3043 10.4784 9.3043 11.1387 8.89473 11.5475H8.90523ZM14.3975 10.7404L13.5889 11.5475C13.3788 11.757 13.1163 11.8514 12.8432 11.8514C12.5702 11.8514 12.3077 11.7466 12.0977 11.5475C11.6881 11.1387 11.6881 10.4784 12.0977 10.0697L12.9063 9.26268C13.3158 8.85398 13.9775 8.85398 14.387 9.26268C14.7965 9.67146 14.7965 10.3317 14.387 10.7404H14.3975Z" fill="white"/>
</g>
<defs>
<clipPath id="clip0_1597_72">
<rect width="21" height="21" fill="white"/>
</clipPath>
</defs>
</svg>
