<svg width="21" height="21" viewBox="0 0 21 21" fill="none" xmlns="http://www.w3.org/2000/svg">
<g clip-path="url(#clip0_1597_39)">
<path d="M19.6464 1.42145L11.7276 0.0251519C10.837 -0.131897 9.9876 0.46283 9.83055 1.35348L9.75562 1.77853C10.9008 1.91962 11.8683 2.74461 12.173 3.88136L12.6569 5.68748C12.9131 5.57637 13.2036 5.53634 13.4992 5.58847C14.0602 5.6874 14.4906 6.09112 14.6509 6.59918C14.9753 6.17659 15.5179 5.9444 16.0788 6.04333C16.8817 6.18492 17.4178 6.95056 17.2762 7.75344C16.9686 9.498 15.0965 10.9002 14.2081 11.4769L15.5645 16.5392C15.6373 16.8105 15.6676 17.0833 15.6609 17.3509L16.8021 17.5521C17.6928 17.7092 18.5421 17.1144 18.6992 16.2238L20.9747 3.31858C21.1318 2.42785 20.5371 1.5785 19.6464 1.42145Z" fill="white"/>
<path d="M10.9867 4.19925C10.7907 3.46762 10.1291 2.98507 9.406 2.98511C9.26573 2.98511 9.12308 3.00328 8.98112 3.0413L1.21416 5.12243C0.340565 5.35651 -0.177872 6.25446 0.056204 7.12805L3.44783 19.7858C3.64388 20.5175 4.3055 21 5.02857 21C5.16884 21 5.31149 20.9818 5.45341 20.9438L13.2204 18.8626C14.094 18.6285 14.6124 17.7306 14.3783 16.857L10.9867 4.19925ZM4.94281 12.8515C4.8111 12.7357 4.76193 12.552 4.81804 12.3859L6.00568 8.86929C6.10502 8.57513 6.47179 8.47685 6.70492 8.68193L9.49177 11.1336C9.62347 11.2495 9.67265 11.4331 9.61654 11.5992L8.42889 15.1158C8.32955 15.41 7.96279 15.5083 7.72965 15.3032L4.94281 12.8515Z" fill="white"/>
</g>
<defs>
<clipPath id="clip0_1597_39">
<rect width="21" height="21" fill="white"/>
</clipPath>
</defs>
</svg>
