<svg width="21" height="21" viewBox="0 0 21 21" fill="none" xmlns="http://www.w3.org/2000/svg">
<path d="M10.5 18.7031C9.43997 18.7031 8.41347 19.0746 7.59905 19.7531C7.14135 20.1346 6.56442 20.3436 5.96859 20.3438C5.25587 20.3438 4.57233 20.0606 4.06835 19.5566C3.56438 19.0527 3.28125 18.3691 3.28125 17.6564C3.28132 17.2775 3.38269 16.9054 3.57486 16.5789C3.76703 16.2523 4.04302 15.983 4.37423 15.7989L4.8008 15.5617C5.72937 15.0458 6.45678 14.2318 6.86536 13.2513C7.16433 12.5337 7.66902 11.9207 8.31583 11.4895C8.96264 11.0582 9.72262 10.8281 10.5 10.8281C11.2773 10.8282 12.0372 11.0583 12.684 11.4896C13.3307 11.9208 13.8354 12.5338 14.1343 13.2513C14.5429 14.2318 15.2703 15.0458 16.1989 15.5617L16.6254 15.7989C16.9567 15.9829 17.2328 16.2522 17.425 16.5788C17.6172 16.9054 17.7186 17.2774 17.7188 17.6564C17.7187 18.3691 17.4356 19.0527 16.9316 19.5566C16.4277 20.0606 15.7441 20.3438 15.0314 20.3438C14.4356 20.3436 13.8586 20.1346 13.401 19.7531C12.5865 19.0746 11.56 18.7031 10.5 18.7031Z" fill="white"/>
<path d="M7.54688 10.8281C8.63419 10.8281 9.51562 9.50597 9.51562 7.875C9.51562 6.24403 8.63419 4.92188 7.54688 4.92188C6.45956 4.92188 5.57812 6.24403 5.57812 7.875C5.57812 9.50597 6.45956 10.8281 7.54688 10.8281Z" fill="white"/>
<path d="M13.4531 10.8281C14.5404 10.8281 15.4219 9.50597 15.4219 7.875C15.4219 6.24403 14.5404 4.92188 13.4531 4.92188C12.3658 4.92188 11.4844 6.24403 11.4844 7.875C11.4844 9.50597 12.3658 10.8281 13.4531 10.8281Z" fill="white"/>
<path d="M3.60938 14.7656C4.69669 14.7656 5.57812 13.5904 5.57812 12.1406C5.57812 10.6909 4.69669 9.51562 3.60938 9.51562C2.52206 9.51562 1.64062 10.6909 1.64062 12.1406C1.64062 13.5904 2.52206 14.7656 3.60938 14.7656Z" fill="white"/>
<path d="M17.3906 14.7656C18.4779 14.7656 19.3594 13.5904 19.3594 12.1406C19.3594 10.6909 18.4779 9.51562 17.3906 9.51562C16.3033 9.51562 15.4219 10.6909 15.4219 12.1406C15.4219 13.5904 16.3033 14.7656 17.3906 14.7656Z" fill="white"/>
<path d="M3.14081 8.53125C3.24543 8.53125 3.34903 8.51064 3.44569 8.47061C3.54235 8.43057 3.63018 8.37188 3.70416 8.29791C3.77814 8.22393 3.83682 8.1361 3.87686 8.03944C3.91689 7.94278 3.9375 7.83919 3.9375 7.73456C3.9375 7.61084 3.90863 7.48882 3.85317 7.37822C3.69291 7.05747 3.60944 6.70384 3.60938 6.34528V5.25L3.49683 5.40028C2.93088 6.15469 2.62495 7.07234 2.625 8.01544C2.625 8.15224 2.67934 8.28344 2.77608 8.38017C2.87281 8.47691 3.00401 8.53125 3.14081 8.53125Z" fill="white"/>
<path d="M7.73456 3.9375C7.83919 3.9375 7.94278 3.91689 8.03944 3.87686C8.1361 3.83682 8.22393 3.77814 8.29791 3.70416C8.37188 3.63018 8.43057 3.54235 8.47061 3.44569C8.51064 3.34903 8.53125 3.24543 8.53125 3.14081C8.53125 3.01709 8.50238 2.89507 8.44692 2.78447C8.28666 2.46372 8.20319 2.11009 8.20312 1.75153V0.65625L8.09058 0.806531C7.52463 1.56094 7.2187 2.47859 7.21875 3.42169C7.21875 3.55849 7.27309 3.68969 7.36983 3.78642C7.46656 3.88316 7.59776 3.9375 7.73456 3.9375Z" fill="white"/>
<path d="M17.8592 8.53125C17.6479 8.53125 17.4453 8.44731 17.2958 8.29791C17.1464 8.1485 17.0625 7.94586 17.0625 7.73456C17.0625 7.61084 17.0914 7.48882 17.1468 7.37822C17.3071 7.05747 17.3906 6.70384 17.3906 6.34528V5.25L17.5032 5.40028C18.0691 6.15469 18.375 7.07234 18.375 8.01544C18.375 8.15224 18.3207 8.28344 18.2239 8.38017C18.1272 8.47691 17.996 8.53125 17.8592 8.53125Z" fill="white"/>
<path d="M13.2654 3.9375C13.0541 3.9375 12.8515 3.85356 12.7021 3.70416C12.5527 3.55475 12.4688 3.35211 12.4688 3.14081C12.4687 3.01709 12.4976 2.89507 12.5531 2.78447C12.7133 2.46372 12.7968 2.11009 12.7969 1.75153V0.65625L12.9094 0.806531C13.4754 1.56094 13.7813 2.47859 13.7812 3.42169C13.7813 3.55849 13.7269 3.68969 13.6302 3.78642C13.5334 3.88316 13.4022 3.9375 13.2654 3.9375Z" fill="white"/>
</svg>
