<svg width="92" height="92" viewBox="0 0 92 92" fill="none" xmlns="http://www.w3.org/2000/svg">
<path d="M73 19.5556V72.4444C73 74.4483 72.1872 76.3701 70.7405 77.787C69.2938 79.204 67.3317 80 65.2857 80H26.7143C24.6683 80 22.7062 79.204 21.2595 77.787C19.8128 76.3701 19 74.4483 19 72.4444V19.5556C19 17.5517 19.8128 15.6299 21.2595 14.213C22.7062 12.796 24.6683 12 26.7143 12H65.2857C67.3317 12 69.2938 12.796 70.7405 14.213C72.1872 15.6299 73 17.5517 73 19.5556Z" stroke="white" stroke-width="6" stroke-linecap="round" stroke-linejoin="round"/>
<path d="M46 62L35 46L46 30L57 46L46 62Z" stroke="white" stroke-width="6" stroke-linecap="round" stroke-linejoin="round"/>
</svg>
