<svg width="95" height="95" viewBox="0 0 95 95" fill="none" xmlns="http://www.w3.org/2000/svg">
<path d="M16 65C16 68.713 17.475 72.274 20.1005 74.8995C22.726 77.525 26.287 79 30 79C33.713 79 37.274 77.525 39.8995 74.8995C42.525 72.274 44 68.713 44 65C44 61.287 42.525 57.726 39.8995 55.1005C37.274 52.475 33.713 51 30 51C26.287 51 22.726 52.475 20.1005 55.1005C17.475 57.726 16 61.287 16 65Z" stroke="white" stroke-width="7" stroke-linecap="round" stroke-linejoin="round"/>
<path d="M55 71C55 74.1826 56.2643 77.2348 58.5147 79.4853C60.7652 81.7357 63.8174 83 67 83C70.1826 83 73.2348 81.7357 75.4853 79.4853C77.7357 77.2348 79 74.1826 79 71C79 67.8174 77.7357 64.7652 75.4853 62.5147C73.2348 60.2643 70.1826 59 67 59C63.8174 59 60.7652 60.2643 58.5147 62.5147C56.2643 64.7652 55 67.8174 55 71Z" stroke="white" stroke-width="7" stroke-linecap="round" stroke-linejoin="round"/>
<path d="M36 51C37.3827 43.1429 43.0493 35.7846 53 29" stroke="white" stroke-width="7" stroke-linecap="round" stroke-linejoin="round"/>
<path d="M67 59C62.0915 49.9272 58.4091 38.2606 63.3177 24" stroke="white" stroke-width="7" stroke-linecap="round" stroke-linejoin="round"/>
<path d="M20 24C34.3346 13.3333 48.6654 13.3333 63 24C48.6654 34.6667 34.3346 34.6667 20 24Z" stroke="white" stroke-width="7" stroke-linecap="round" stroke-linejoin="round"/>
</svg>
