<svg xmlns="http://www.w3.org/2000/svg" viewBox="0 0 800 800" width="24" height="24">
<path d="M350 400C350 372.344 372.344 350 400 350C427.656 350 450 372.344 450 400C450 427.656 427.656 450 400 450C372.344 450 350 427.656 350 400ZM800 400C800 620.937 620.937 800 400 800C179.063 800 0 620.937 0 400C0 179.063 179.063 0 400 0C620.937 0 800 179.063 800 400ZM400 100C232.969 100 100 232.969 100 400C100 565.625 232.969 700 400 700C565.625 700 700 565.625 700 400C700 232.969 565.625 100 400 100Z" opacity="0.2"></path>

<path d="M175 400C175 275.781 275.781 175 400 175C524.219 175 625 275.781 625 400C625 524.219 524.219 625 400 625C275.781 625 175 524.219 175 400ZM400 525C469.063 525 525 469.063 525 400C525 330.937 469.063 275 400 275C330.937 275 275 330.937 275 400C275 469.063 330.937 525 400 525Z" opacity="0.4"></path>




</svg>
