<svg xmlns="http://www.w3.org/2000/svg" viewBox="0 0 800 800" width="24" height="24">
<path d="M275.875 89.335C309.125 70.1175 351.75 81.5225 371 114.813L579.75 476.375C598.875 509.75 587.5 552.25 554.25 571.5L313.125 710.625C279.875 729.875 237.375 718.5 218.125 685.25L9.335 323.625C-9.8825 290.25 1.5225 247.75 34.8125 228.5L275.875 89.335ZM179.75 426.625C171.125 459 190.375 491.375 222.875 501.125C255.375 509.875 287.625 490.625 297.375 458.125L300.375 447C300.5 446.625 300.625 446.125 300.75 445.625L323 484L307.875 492.75C299.5 497.5 296.75 508.125 301.5 516.5C306.375 524.875 317 527.625 325.25 522.875L385.5 488.125C393.875 483.25 396.75 472.625 391.875 464.25C387.125 456 376.5 453.125 368.125 457.875L353.125 466.625L330.875 428.25C331.375 428.375 331.875 428.5 332.375 428.625L343.375 431.5C375.875 440.25 409.25 421 418 388.5C426.625 356 407.375 322.625 374.875 313.875L245.125 279.5C232.25 275.75 218 284 214.25 297.875L179.75 426.625Z" opacity="0.2"></path>

<path d="M405.125 703.75L574.25 606.125C626.625 575.875 644.625 508.875 614.375 456.375L443.375 160.312C445.625 160.1 447.75 160 450 160H730C768.625 160 800 191.337 800 230V650C800 688.625 768.625 720 730 720H450C433 720 417.25 713.875 405.125 703.75ZM724.75 249.625C707.25 234.875 681.625 237.75 666.125 253.625L660.125 260.25L653.875 253.625C638.25 237.75 612.375 234.875 595.5 249.625C575.875 266.5 574.875 296.375 592.375 314.5L653 377C656.75 381 663.25 381 667.375 377L727.5 314.5C745 296.375 744.125 266.5 724.75 249.625Z" opacity="0.4"></path>

</svg>
