<svg xmlns="http://www.w3.org/2000/svg" viewBox="0 0 800 800" width="24" height="24">
<path d="M260.156 616.875L180.938 537.656C166.563 523.281 162.344 501.719 170.469 483.125C199.063 417.812 268.438 264.062 323.75 182.344C451.719 -6.35943 642.344 -12.7219 756.094 8.24213C774.375 11.5843 788.438 25.6718 791.719 43.8437C812.656 157.656 806.406 348.281 617.656 476.25C535.313 532.031 379.688 599.844 312.656 627.656C295.469 635.312 274.219 631.094 260.156 616.875ZM600 262.5C634.531 262.5 662.5 234.531 662.5 200C662.5 165.469 634.531 137.5 600 137.5C565.469 137.5 537.5 165.469 537.5 200C537.5 234.531 565.469 262.5 600 262.5Z" opacity="0.2"></path>

<path d="M310.313 203.125C265.781 274.844 215.469 382.031 185.156 450H36.0938C23.9532 450 11.4594 442.656 4.81722 430.937C-1.82496 419.062 -1.58434 403.281 5.44847 392.969L87.9063 257.344C108.297 223.75 144.75 203.125 184.063 203.125H310.313ZM348.594 612.187C418.594 582.5 525.625 533.594 595.469 489.687V615.937C595.469 655.312 576.25 691.719 542.656 712.187L407.031 794.531C395.313 801.562 380.938 801.875 369.063 795.156C357.344 788.594 348.594 776.094 348.594 762.5V612.187Z" opacity="0.4"></path>





</svg>
