<svg xmlns="http://www.w3.org/2000/svg" viewBox="0 0 800 800" width="24" height="24">
<path d="M738.875 320H590.5C596.023 332.838 598.755 346.562 598.755 360.287C598.755 386.162 588.924 412.012 569.218 431.712L398.968 601.963V659.925C400 693.125 426.875 720 460 720H738.875C772 720 797.75 693.125 797.75 661.125V380C798.875 346.875 773.125 320 738.875 320ZM598.875 550C582.313 550 570 536.562 570 521.125C570 505.687 583.438 492.25 598.875 492.25C614.313 492.25 627.75 505.687 627.75 521.125C627.75 536.562 616.5 550 598.875 550ZM120 330C103.437 330 91.125 343.438 91.125 358.875C91.125 374.313 104.562 387.75 120 387.75C135.438 387.75 148.875 374.313 148.875 358.875C148.875 343.438 136.625 330 120 330ZM440 390C456.563 390 468.875 376.562 468.875 361.125C468.875 345.687 455.438 332.25 440 332.25C424.563 332.25 410 343.5 410 360C410 376.5 423.5 390 440 390ZM280 490C263.438 490 251.125 503.438 251.125 518.875C251.125 534.313 264.563 547.75 280 547.75C296.563 547.75 308.875 534.313 308.875 518.875C308.875 503.438 296.625 490 280 490ZM280 330C263.438 330 251.125 343.438 251.125 358.875C251.125 374.313 264.563 387.75 280 387.75C295.438 387.75 308.875 374.313 308.875 358.875C308.875 343.438 296.625 330 280 330ZM280 170C263.438 170 251.125 183.437 251.125 198.875C251.125 214.312 264.563 227.75 280 227.75C296.563 227.75 308.875 214.312 308.875 198.875C308.875 183.437 296.625 170 280 170Z" opacity="0.2"></path>

<path d="M558.875 360C558.875 344.3 552.897 328.588 540.937 316.55L322.312 97.925C311.375 85.98 295.625 80 278.875 80C264.25 80 248.625 85.98 236.5 97.9375L17.9375 316.5C5.97997 328.625 -0.00140381 344.25 -0.00140381 358.875C-0.00140381 374.575 5.9811 390.35 17.9361 402.375L236.561 621C248.594 632.954 264.299 638.937 279.999 638.937C295.699 638.937 311.411 632.96 323.436 621L542.061 402.375C554 391.375 558.875 375.75 558.875 360ZM120 390C103.437 390 91.125 376.562 91.125 361.125C91.125 345.687 104.562 332.25 120 332.25C135.437 332.25 148.875 345.687 148.875 361.125C148.875 376.562 136.625 390 120 390ZM280 550C263.437 550 251.125 536.562 251.125 521.125C251.125 505.687 264.562 492.25 280 492.25C296.562 492.25 308.875 505.687 308.875 521.125C308.875 536.562 296.625 550 280 550ZM280 390C263.437 390 251.125 376.562 251.125 361.125C251.125 345.687 264.562 332.25 280 332.25C295.437 332.25 308.875 345.687 308.875 361.125C308.875 376.562 296.625 390 280 390ZM280 230C263.437 230 251.125 216.563 251.125 201.125C251.125 185.688 264.562 172.25 280 172.25C296.562 172.25 308.875 185.688 308.875 201.125C308.875 216.563 296.625 230 280 230ZM440 390C423.437 390 411.125 376.562 411.125 361.125C411.125 345.687 424.562 332.25 440 332.25C455.437 332.25 468.875 345.687 468.875 361.125C468.875 376.562 456.625 390 440 390Z" opacity="0.4"></path>


</svg>
