<svg xmlns="http://www.w3.org/2000/svg" xmlns:xlink="http://www.w3.org/1999/xlink" aria-hidden="true" role="img" class="icon text-brand-primary" style="" width="32px" height="32px" viewBox="0 0 24 24" data-v-c3ad5561=""><path fill="#15ADFE" d="M20 3H4c-1.103 0-2 .897-2 2v14c0 1.103.897 2 2 2h16c1.103 0 2-.897 2-2V5c0-1.103-.897-2-2-2m.001 6c-.001 0-.001 0 0 0h-.465l-2.667-4H20zM9.536 9L6.869 5h2.596l2.667 4zm5 0l-2.667-4h2.596l2.667 4zM4 5h.465l2.667 4H4zm0 14v-8h16l.002 8z"></path><path fill="#15ADFE" d="m10 18l5.5-3l-5.5-3z"></path></svg>