<?xml version="1.0" encoding="utf-8"?>
<svg xmlns="http://www.w3.org/2000/svg" id="Camada_2_00000153680405393362507340000004148769511251721644_" style="enable-background:new 0 0 828.4 128.3;" version="1.1" viewBox="0 0 828.4 128.3" x="0px" y="0px">
<style type="text/css">
	.st0{fill:#FFFFFF;}
	.st1{fill:#03C6FC;}
</style>
<g id="Camada_2-2">
	<g id="V2">
		<g>
			<path class="st0" d="M205,77.6c0,27.2-22.4,49.2-49.9,49.2s-49.9-22.1-49.9-49.2s22.4-49.2,49.9-49.2S205,50.4,205,77.6z&#xD;&#xA;				 M176.9,77.6c0-11.8-9.8-21.5-21.8-21.5s-21.8,9.6-21.8,21.5s9.8,21.5,21.8,21.5S176.9,89.4,176.9,77.6z"/>
			<path class="st0" d="M296.3,69.5v54.4h-31V70.9c0-3.5-0.2-7.5-1.7-10.7c-0.7-1.4-1.6-2.5-2.6-3.3c-1.8-1.4-4-2-6.9-2&#xD;&#xA;				c-5.4,0-9.6,1.9-10.9,4.9c-1.5,3.2-1.5,7.7-1.5,11.3v52.9h-31.1v-94h27.8c0.8,0,1.5,0.7,1.5,1.5v2.5c0,0.6,0.7,1,1.2,0.6&#xD;&#xA;				c21.2-14.6,41.8,1.6,42,1.8c0.8,0.6,1.5,1.2,2.1,1.9l0,0C294.6,47.8,296.2,55.6,296.3,69.5L296.3,69.5z"/>
			<path class="st0" d="M407.7,29.8v94H380c-0.8,0-1.5-0.7-1.5-1.5v-1.4c0-0.6-0.6-0.9-1.1-0.7c-7.5,4.3-16,6.5-24.8,6.5&#xD;&#xA;				c-27.5,0-49.9-22.1-49.9-49.2s22.4-49.2,49.9-49.2c8.7,0,17.2,2.2,24.8,6.5c0.5,0.3,1.1-0.1,1.1-0.7v-2.9c0-0.8,0.7-1.5,1.5-1.5&#xD;&#xA;				L407.7,29.8L407.7,29.8z M378.5,77.6c0-12.4-8.8-22.6-21.4-22.6s-22.9,10.1-22.9,22.6s10.3,22.6,22.9,22.6S378.5,90,378.5,77.6z"/>
			<path class="st0" d="M449.4,0.2v123.7h-30.8V0.2H449.4z"/>
			<path class="st0" d="M527.8,29.4v3.6c-6.3-2.8-13.2-4.4-20.5-4.4c-27.5,0-49.8,22.3-49.8,49.7s22.3,49.7,49.8,49.7&#xD;&#xA;				c25.8,0,47.1-19.7,49.5-44.9c0.2-1.6,0.2-3.2,0.2-4.8V0.2C540.9,0.2,527.8,13.3,527.8,29.4z M507.3,103.1&#xD;&#xA;				c-13.7,0-24.8-11.1-24.8-24.8s11.1-24.8,24.8-24.8c8.5,0,16,4.3,20.5,10.8c2.7,4,4.3,8.8,4.3,13.9c0,1.7-0.2,3.3-0.5,4.8&#xD;&#xA;				C529.4,94.5,519.4,103.1,507.3,103.1L507.3,103.1z"/>
			<path class="st1" d="M565.6,0.4v78.2c0,1.6,0.1,3.2,0.2,4.8c2.4,25.2,23.7,44.9,49.5,44.9c27.5,0,49.8-22.3,49.8-49.8&#xD;&#xA;				c0-27.4-22.3-49.7-49.8-49.7c-7.3,0-14.2,1.6-20.5,4.4v-3.6C594.8,13.4,581.7,0.4,565.6,0.4z M591,83.3c-0.3-1.6-0.5-3.2-0.5-4.8&#xD;&#xA;				c0-5.2,1.6-10,4.3-13.9c4.5-6.5,12-10.8,20.5-10.8c13.7,0,24.8,11.1,24.8,24.8c0,13.7-11.1,24.8-24.8,24.8&#xD;&#xA;				C603.3,103.3,593.3,94.7,591,83.3L591,83.3z"/>
			<path class="st1" d="M29.2,37.3V65c-2.1,3.2-3.4,7-3.8,11c-0.1,0.1-0.1,0.1-0.2,0.2H0V0.8c15,0,27.4,14.2,29,32.5&#xD;&#xA;				C29.1,34.6,29.2,36,29.2,37.3L29.2,37.3z"/>
			<path class="st0" d="M70.5,29.4V33c-6.3-2.8-13.2-4.4-20.5-4.4c-4.8,0-9.3,0.7-13.7,1.9c-2.5,0.7-5,1.7-7.4,2.8&#xD;&#xA;				c-9.1,4.2-16.7,11.2-21.8,19.8c-4.1,6.8-6.5,14.7-6.9,23.1c0,0.7-0.1,1.4-0.1,2.2c0,27.5,22.3,49.7,49.8,49.7&#xD;&#xA;				c25.8,0,47.1-19.7,49.5-44.9c0.2-1.6,0.2-3.2,0.2-4.8V0.2C83.6,0.2,70.5,13.3,70.5,29.4z M74.3,83.1c-2.2,11.4-12.2,20-24.3,20&#xD;&#xA;				c-13.7,0-24.8-11.1-24.8-24.8c0-0.8,0-1.6,0.1-2.4c0.4-4,1.7-7.7,3.8-11c0.9-1.5,2-2.8,3.2-4c1.2-1.2,2.5-2.3,4-3.3&#xD;&#xA;				c3.9-2.6,8.6-4.1,13.7-4.1c8.5,0,16,4.3,20.5,10.8c2.7,4,4.3,8.8,4.3,13.9C74.8,80,74.6,81.6,74.3,83.1L74.3,83.1z"/>
			<g>
				<g>
					<path class="st1" d="M770.3,76.6c0,3.1-0.4,6.9-1,10h-67.1c-1.2,0-1.9,1.3-1.3,2.3c4,6.8,11.3,11.1,19.3,11.1&#xD;&#xA;						c6.8,0,13.2-3,17.7-8.8c0.3-0.4,0.9-0.7,1.5-0.6l27.2,4.9c0,0.1-1.8,3.8-2.5,5.2h0l-0.4,0.7c-0.4,0.7-0.8,1.3-1.3,2&#xD;&#xA;						c-0.6,0.9-1.1,1.7-1.7,2.4l-0.3,0.4h0c-0.2,0.2-0.4,0.5-0.5,0.7l-0.3,0.3c-0.3,0.4-0.7,0.8-1,1.2l-0.3,0.3&#xD;&#xA;						c-0.6,0.6-1.1,1.2-1.7,1.8L756,111c-0.4,0.4-0.8,0.8-1.2,1.2l-0.1,0.1c-0.4,0.4-0.9,0.8-1.4,1.2l-0.5,0.4l-0.6-0.5l0.5,0.6&#xD;&#xA;						c-0.7,0.6-1.4,1.1-2,1.6l-0.6,0.4c-0.8,0.6-1.6,1.1-2.4,1.7l-0.2,0.2c-0.9,0.6-1.9,1.2-2.8,1.7l-0.3,0.2&#xD;&#xA;						c-0.2,0.1-0.5,0.2-0.7,0.4l-0.2,0.1c-0.4,0.2-0.8,0.4-1.2,0.6l-0.2,0.1c-0.9,0.4-1.7,0.8-2.6,1.2l-0.2,0.1&#xD;&#xA;						c-0.6,0.2-1.1,0.4-1.6,0.6l-0.6,0.2c-0.6,0.2-1.2,0.4-1.9,0.6l-0.1,0c-0.7,0.2-1.4,0.4-2.2,0.6l-0.6,0.2&#xD;&#xA;						c-1.4,0.3-2.9,0.6-4.3,0.9l-0.5,0.1c-1.5,0.2-3,0.4-4.5,0.4l-0.5,0c-0.9,0-1.6,0.1-2.3,0.1s-1.5,0-2.3-0.1c-0.2,0-0.3,0-0.5,0&#xD;&#xA;						h-0.2c-0.6,0-1.1-0.1-1.7-0.1l-0.2,0c-0.2,0-0.3,0-0.5-0.1c-0.8-0.1-1.5-0.2-2.2-0.3h0c0,0,0,0,0,0l-0.4-0.1&#xD;&#xA;						c-0.6-0.1-1.2-0.2-1.8-0.3l-0.7-0.1c-0.5-0.1-1.1-0.2-1.6-0.4l-0.2,0c-0.2,0-0.3-0.1-0.5-0.1c-0.8-0.2-1.5-0.4-2.1-0.6&#xD;&#xA;						c-0.7-0.2-1.4-0.4-2.1-0.7c-0.2-0.1-0.3-0.1-0.5-0.2l-0.1-0.1c-0.5-0.2-1-0.4-1.5-0.6l-0.1-0.1c-0.2-0.1-0.3-0.1-0.5-0.2&#xD;&#xA;						c-0.7-0.3-1.3-0.6-2-0.9l-0.1,0c-0.6-0.3-1.2-0.6-1.9-0.9c-0.2-0.1-0.3-0.2-0.5-0.2l-0.1-0.1c-0.5-0.3-0.9-0.5-1.4-0.8&#xD;&#xA;						l-0.5-0.3c-0.6-0.4-1.2-0.8-1.8-1.2c-6-4-11.1-9.3-14.8-15.3c-0.3-0.5-0.6-1-0.9-1.5l-0.1-0.2c-0.3-0.5-0.5-1-0.8-1.5l-0.2-0.3&#xD;&#xA;						c-0.1-0.2-0.2-0.3-0.2-0.5c-0.9-1.9-1.8-4-2.5-6.1c-0.4-1.2-0.7-2.2-0.9-3.1c-0.2-0.8-0.4-1.6-0.6-2.4c-0.5-2.4-0.8-4.9-1-7.4&#xD;&#xA;						c0-0.8-0.1-1.7-0.1-2.5s0-1.7,0.1-2.5c0.2-4.4,1-8.7,2.5-12.9c0.5-1.4,0.9-2.6,1.4-3.8c0.3-0.7,0.6-1.3,0.9-2&#xD;&#xA;						c0.1-0.2,0.2-0.3,0.2-0.5l0.2-0.4c0.1-0.2,0.2-0.3,0.2-0.5c0.1-0.2,0.2-0.3,0.2-0.5l0.4-0.8c0.3-0.6,0.7-1.2,1.1-1.8&#xD;&#xA;						c3.7-6,8.8-11.3,14.8-15.3c0.6-0.4,1.2-0.8,1.8-1.2l0.5-0.3c0.5-0.3,0.9-0.5,1.4-0.8l0.1-0.1c0.2-0.1,0.3-0.2,0.5-0.2&#xD;&#xA;						c0.6-0.3,1.3-0.7,1.9-1c0.7-0.3,1.3-0.6,2-0.9c0.2-0.1,0.3-0.1,0.5-0.2l0.1-0.1c0.5-0.2,1-0.4,1.5-0.6l0.2,0l0.5-0.2&#xD;&#xA;						c0.7-0.2,1.4-0.5,2.1-0.7c0.7-0.2,1.4-0.4,2.1-0.6c0.2,0,0.3-0.1,0.5-0.1l0.2,0c0.5-0.1,1.1-0.2,1.6-0.4l0.4-0.1&#xD;&#xA;						c0.7-0.1,1.7-0.3,2.4-0.4l0.1,0c0,0,0,0,0,0h0c0.7-0.1,1.4-0.2,2.2-0.3c0.2,0,0.3,0,0.5,0l0.2,0c0.6,0,1.1-0.1,1.7-0.1h0.1&#xD;&#xA;						c0.2,0,0.4,0,0.5,0c0.9,0,1.6-0.1,2.3-0.1s1.4,0,2.3,0.1l0.5,0c1.5,0.1,3,0.2,4.5,0.5l0.6,0.1c1.4,0.2,2.9,0.5,4.2,0.9l0.6,0.2&#xD;&#xA;						c0.8,0.2,1.5,0.4,2.1,0.6l0.1,0c0.7,0.2,1.3,0.4,1.9,0.6c0.2,0.1,0.4,0.1,0.6,0.2c0.6,0.2,1.1,0.4,1.6,0.6l0.2,0.1&#xD;&#xA;						c0.8,0.3,1.7,0.7,2.5,1.1l0.2,0.1c0.4,0.2,0.8,0.4,1.2,0.6l0.1,0.1l-0.3,0.7l0.4-0.6c0.2,0.1,0.5,0.2,0.7,0.4&#xD;&#xA;						c0.8,0.5,2.2,1.3,3,1.8l0.1,0.1c0.9,0.6,1.7,1.1,2.5,1.7l0.1,0.1c0.2,0.1,0.3,0.2,0.5,0.4c0.7,0.5,1.3,1,2,1.6l0.4,0.3&#xD;&#xA;						c0.5,0.4,1,0.9,1.5,1.4l0.1,0.1c0.4,0.4,0.8,0.8,1.2,1.2l0.3,0.3c0.6,0.7,1.2,1.2,1.7,1.8l-0.5,0.6l0.6-0.5l0.3,0.3&#xD;&#xA;						c0.3,0.4,0.7,0.8,1,1.2l0.3,0.4c0.4,0.5,0.8,1,1.1,1.5l0,0.1c0.3,0.4,0.6,0.8,0.9,1.2l0.5,0.8c0.2,0.4,0.5,0.7,0.7,1.1l0.9,1.5&#xD;&#xA;						h0c1.9,3.3,3.3,6.7,4.4,10.2C769.5,67.2,770.2,71.8,770.3,76.6L770.3,76.6z M740.8,64.1c-1.2-6.9-9.2-12.3-19.4-12.3&#xD;&#xA;						c-9.2,0-18,5.3-19.4,12.3c-0.2,0.9,0.5,1.8,1.5,1.8h35.8C740.3,65.9,741,65,740.8,64.1L740.8,64.1z"/>
					<path class="st1" d="M828.4,98.5l-3.8,25.2c-0.5,0-12.5,0.8-15.7,0.8c-0.2,0-0.4,0-0.5,0c-16-0.8-24.4-9-24.4-23.7V54.1h-12.8&#xD;&#xA;						V28.8H784V0h29.3v28.8h12.8V54h-12.8c0,5.7,0,32.3,0,32.6l0,0.7c-0.1,2.9-0.2,6.8,2.1,9.1c1.3,1.4,3.4,2.1,6.2,2.1H828.4&#xD;&#xA;						L828.4,98.5z"/>
				</g>
			</g>
		</g>
		<path class="st1" d="M62.1,26.2l-13.3-23L35.6,25.9c4-1.1,8.3-1.6,12.7-1.6C53.1,24.2,57.7,24.9,62.1,26.2z"/>
	</g>
</g>
</svg>